<svg width="19" height="19" viewBox="0 0 19 19" fill="none" xmlns="http://www.w3.org/2000/svg">
<path fill-rule="evenodd" clip-rule="evenodd" d="M2.70567 14.4896C4.2676 12.4225 6.72792 11.083 9.49964 11.083C12.2714 11.083 14.7317 12.4225 16.2936 14.4896C16.3007 14.499 16.3078 14.5084 16.3149 14.5178C16.4492 14.6954 16.5932 14.8858 16.6961 15.0695C16.8206 15.2919 16.913 15.5491 16.9072 15.862C16.9026 16.1134 16.8264 16.3489 16.7339 16.5347C16.6414 16.7206 16.4995 16.9233 16.3016 17.0786C16.0377 17.2857 15.7504 17.359 15.4952 17.3896C15.2713 17.4165 15.0059 17.4164 14.7391 17.4163C14.7271 17.4163 14.7151 17.4163 14.7031 17.4163H4.2962C4.28417 17.4163 4.27215 17.4163 4.26013 17.4163C3.99334 17.4164 3.72798 17.4165 3.50406 17.3896C3.24884 17.359 2.96154 17.2857 2.69766 17.0786C2.49978 16.9233 2.3579 16.7206 2.26537 16.5347C2.17284 16.3489 2.09665 16.1134 2.09205 15.862C2.08633 15.5491 2.17864 15.2919 2.3032 15.0695C2.40611 14.8858 2.5501 14.6954 2.6844 14.5178C2.69152 14.5084 2.69861 14.499 2.70567 14.4896Z" fill="#33140C"/>
<path fill-rule="evenodd" clip-rule="evenodd" d="M5.14547 5.93717C5.14547 3.53243 7.0949 1.58301 9.49964 1.58301C11.9044 1.58301 13.8538 3.53243 13.8538 5.93717C13.8538 8.34191 11.9044 10.2913 9.49964 10.2913C7.0949 10.2913 5.14547 8.34191 5.14547 5.93717Z" fill="#33140C"/>
</svg>
